<svg width="18" height="18" viewBox="0 0 18 18" fill="none" xmlns="http://www.w3.org/2000/svg">
<g clip-path="url(#clip0_2487_8322)">
<path d="M17.332 11.7064C16.9873 11.6807 16.2757 12.0659 16.0813 12.1649C15.3881 12.5133 14.4235 13.0598 13.789 13.4963C13.745 13.5256 13.6863 13.566 13.6423 13.5953C13.3562 13.7787 13.0555 13.8997 12.7217 13.9731C10.8805 14.3655 8.19938 14.4059 8.19938 14.4059L8.04167 14.4132C7.9243 14.4205 7.81793 14.3362 7.80326 14.2225C7.78492 14.0978 7.87662 13.9804 8.00866 13.9694L11.9955 13.5916C12.4356 13.544 12.784 13.1332 12.7364 12.671C12.6887 12.2089 12.2632 11.8715 11.8231 11.9191L8.2764 11.8751C8.03433 11.8715 7.64922 11.8128 7.41815 11.7431C5.13315 11.0756 3.84211 11.6991 3.15624 11.9925C3.0022 11.7394 2.71245 11.5744 2.38969 11.5964L0.86024 11.6991C0.350425 11.7321 -0.0310194 12.1575 0.00199026 12.649L0.247729 16.0453C0.284406 16.5368 0.724534 16.9073 1.23435 16.8706L2.7638 16.7679C3.08656 16.7459 3.35063 16.5478 3.46433 16.2764L10.1836 16.5662C10.9318 16.6469 11.6324 16.5552 12.2926 16.2104L12.4833 16.1114L17.5631 13.1405C17.8125 12.9938 17.9886 12.7407 17.9996 12.462C18.0106 12.1209 17.8162 11.7431 17.332 11.7064ZM1.79551 16.0674C1.50943 16.0674 1.27469 15.8436 1.27469 15.5649C1.27469 15.2861 1.50943 15.0624 1.79551 15.0624C2.0816 15.0624 2.31633 15.2861 2.31633 15.5649C2.31633 15.8436 2.0816 16.0674 1.79551 16.0674ZM13.5543 12.8764C13.5616 12.7847 13.5616 12.6894 13.5506 12.594C13.5396 12.473 13.5103 12.3593 13.4736 12.2492C13.4773 12.2419 13.4809 12.2346 13.4809 12.2272C14.0164 11.9338 15.0654 11.4277 15.6375 11.2039C15.9236 11.0902 16.206 11.0976 16.4665 11.2736C16.2611 11.347 16.0703 11.4387 15.8906 11.5267C15.2891 11.8275 14.2291 12.4033 13.712 12.7664C13.6606 12.8031 13.6056 12.8397 13.5543 12.8764ZM15.0874 10.8628C14.6729 11.0462 13.877 11.325 13.4993 11.534L13.2425 11.6734C13.2168 11.6881 13.1948 11.7027 13.1728 11.7211C13.0591 11.5854 12.9234 11.4717 12.773 11.38C13.1251 11.1929 13.91 10.9399 14.2658 10.8005C14.5519 10.6868 14.827 10.6941 15.0874 10.8628ZM9.39139 2.36836C8.30208 2.36836 7.42182 3.25229 7.42182 4.33794C7.42182 5.42359 8.30574 6.30751 9.39139 6.30751C10.4807 6.30751 11.361 5.42359 11.361 4.33794C11.361 3.25229 10.4807 2.36836 9.39139 2.36836ZM9.95623 5.1155C9.87187 5.21819 9.75817 5.29155 9.62613 5.32456C9.56745 5.33923 9.54544 5.36857 9.54544 5.43092C9.54911 5.48961 9.54544 5.54829 9.54544 5.60697C9.54544 5.65832 9.51976 5.68766 9.46842 5.68766C9.40606 5.68766 9.34371 5.68766 9.28136 5.68766C9.22635 5.68766 9.20067 5.65465 9.20067 5.60331C9.20067 5.55929 9.20067 5.51895 9.20067 5.47493C9.20067 5.37957 9.197 5.37591 9.10531 5.36124C8.99161 5.3429 8.87791 5.31722 8.77155 5.26587C8.68719 5.22553 8.67985 5.20352 8.70553 5.11916C8.72387 5.05314 8.7422 4.99079 8.76054 4.92477C8.78255 4.85142 8.80456 4.84042 8.87057 4.87709C8.98794 4.93945 9.11265 4.97245 9.24102 4.98713C9.32537 4.99813 9.40606 4.99079 9.48309 4.95412C9.62613 4.89176 9.6518 4.72305 9.5271 4.62035C9.48676 4.58734 9.43907 4.56167 9.38773 4.53966C9.25935 4.48465 9.12732 4.44063 9.00995 4.37095C8.81556 4.25358 8.69086 4.09587 8.70553 3.85746C8.7202 3.58972 8.87424 3.421 9.11998 3.33298C9.22268 3.2963 9.22268 3.2963 9.22268 3.18994C9.22268 3.15326 9.22268 3.11658 9.22268 3.08357C9.22635 3.00288 9.23735 2.99188 9.31804 2.98821C9.34371 2.98821 9.36572 2.98821 9.39139 2.98821C9.56011 2.98821 9.56011 2.98821 9.56011 3.15693C9.56011 3.27796 9.56011 3.27796 9.68115 3.2963C9.77284 3.31097 9.86086 3.33664 9.94522 3.37332C9.9929 3.39533 10.0112 3.42467 9.99657 3.47602C9.97456 3.54937 9.95623 3.62273 9.93055 3.69608C9.90854 3.76577 9.88654 3.77311 9.82052 3.74376C9.68848 3.68141 9.54911 3.65207 9.4024 3.65941C9.36572 3.66307 9.32537 3.66674 9.29237 3.68141C9.16766 3.73643 9.14565 3.8758 9.25202 3.96016C9.30704 4.00417 9.36939 4.03351 9.43174 4.06286C9.54177 4.11054 9.65547 4.15455 9.76184 4.21323C10.1066 4.40396 10.1946 4.82575 9.95623 5.1155ZM12.8061 4.33794C12.8061 4.63869 12.5603 4.88443 12.2596 4.88443C11.9588 4.88443 11.7131 4.63869 11.7131 4.33794C11.7131 4.03718 11.9588 3.79144 12.2596 3.79144C12.5603 3.79144 12.8061 4.03718 12.8061 4.33794ZM7.07338 4.33794C7.07338 4.63869 6.82765 4.88443 6.52689 4.88443C6.22614 4.88443 5.9804 4.63869 5.9804 4.33794C5.9804 4.03718 6.22614 3.79144 6.52689 3.79144C6.82765 3.79144 7.07338 4.03718 7.07338 4.33794ZM13.6826 1.125H5.10014C4.605 1.125 4.20155 1.52845 4.20155 2.0236V6.65228C4.20155 7.14742 4.605 7.55087 5.10014 7.55087H13.6826C14.1778 7.55087 14.5812 7.14742 14.5812 6.65228V2.0236C14.5812 1.52845 14.1778 1.125 13.6826 1.125ZM13.8147 5.79036C13.7413 5.77202 13.668 5.76102 13.591 5.76102C13.0885 5.76102 12.6814 6.16814 12.6814 6.67062C12.6814 6.70729 12.685 6.74764 12.6887 6.78432H6.02441C6.03542 6.7293 6.03908 6.67428 6.03908 6.6156C6.03908 6.11312 5.63196 5.706 5.12948 5.706C5.07447 5.706 5.02312 5.70967 4.9681 5.72067V2.9552C5.01945 2.9662 5.07447 2.96987 5.12948 2.96987C5.63196 2.96987 6.03908 2.56275 6.03908 2.06027C6.03908 2.00159 6.03542 1.94657 6.02441 1.89156H12.707C12.6887 1.96124 12.6777 2.03827 12.6777 2.11529C12.6777 2.61777 13.0848 3.02489 13.5873 3.02489C13.6643 3.02489 13.7413 3.01388 13.811 2.99555V5.79036H13.8147ZM4.21622 8.54483C4.21622 8.3321 4.3886 8.15972 4.60133 8.15972H14.1998C14.4125 8.15972 14.5849 8.3321 14.5849 8.54483C14.5849 8.75756 14.4125 8.92994 14.1998 8.92994H4.59766C4.3886 8.92994 4.21622 8.75756 4.21622 8.54483ZM4.21622 9.93857C4.21622 9.72584 4.3886 9.55346 4.60133 9.55346H14.1998C14.4125 9.55346 14.5849 9.72584 14.5849 9.93857C14.5849 10.1513 14.4125 10.3237 14.1998 10.3237H4.59766C4.3886 10.3237 4.21622 10.1513 4.21622 9.93857Z" fill="#909DAD"/>
</g>
<defs>
<clipPath id="clip0_2487_8322">
<rect width="18" height="18" fill="white"/>
</clipPath>
</defs>
</svg>
